<svg width="20" height="17" viewBox="0 0 20 17" fill="none" xmlns="http://www.w3.org/2000/svg">
<path id="Icon" d="M15.8334 6.3335V1.3335M13.3334 3.8335H18.3334M13.3334 15.5002V14.5002C13.3334 13.1 13.3334 12.4 13.0609 11.8652C12.8212 11.3948 12.4388 11.0123 11.9684 10.7726C11.4336 10.5002 10.7335 10.5002 9.33341 10.5002H5.66675C4.26662 10.5002 3.56655 10.5002 3.03177 10.7726C2.56137 11.0123 2.17892 11.3948 1.93923 11.8652C1.66675 12.4 1.66675 13.1 1.66675 14.5002V15.5002M10.4167 4.25016C10.4167 5.86099 9.11091 7.16683 7.50008 7.16683C5.88925 7.16683 4.58341 5.86099 4.58341 4.25016C4.58341 2.63933 5.88925 1.3335 7.50008 1.3335C9.11091 1.3335 10.4167 2.63933 10.4167 4.25016Z" stroke="#344054" stroke-width="1.66667" stroke-linecap="round" stroke-linejoin="round"/>
</svg>
