<svg xmlns="http://www.w3.org/2000/svg" width="20" height="20" fill="none"><g stroke="#667085" stroke-linecap="round" stroke-linejoin="round" stroke-width="2"><path d="M9.99997 13c-3.17007 0-5.9892 1.5306-7.784 3.906-.38629.5112-.57944.7668-.57312 1.1123.00488.2669.17248.6036.38249.7684C2.29716 19 2.67384 19 3.4272 19h13.1455c.7534 0 1.1301 0 1.4019-.2133.21-.1648.3776-.5015.3825-.7684.0063-.3455-.1868-.6011-.5731-1.1123C15.9892 14.5306 13.17 13 9.99997 13ZM9.99997 10C12.4853 10 14.5 7.98528 14.5 5.5S12.4853 1 9.99997 1c-2.48528 0-4.5 2.01472-4.5 4.5s2.01472 4.5 4.5 4.5Z"/></g></svg>