<svg xmlns="http://www.w3.org/2000/svg" width="20" height="21" fill="none"><path stroke="#667085" stroke-linecap="round" stroke-linejoin="round" stroke-width="2" d="M6 16.0002h8M9.0177 1.76424 2.23539 7.03937c-.45337.35262-.68005.52893-.84336.74973-.14466.19559-.25243.41593-.318.6502C1 8.70376 1 8.99094 1 9.5653v7.2349c0 1.1201 0 1.6802.21799 2.108.19174.3763.4977.6823.87403.874.42782.218.98787.218 2.10798.218h11.6c1.1201 0 1.6802 0 2.108-.218.3763-.1917.6823-.4977.874-.874.218-.4278.218-.9879.218-2.108V9.5653c0-.57436 0-.86154-.074-1.126-.0656-.23427-.1734-.45461-.318-.6502-.1633-.2208-.39-.39711-.8434-.74973l-6.7823-5.27513c-.3513-.27325-.527-.40988-.721-.4624-.1711-.04634-.3515-.04634-.52265 0-.19397.05252-.36963.18915-.72095.4624Z"/></svg>