<svg xmlns="http://www.w3.org/2000/svg" width="24" height="24" fill="none"><path stroke="#667085" stroke-linecap="round" stroke-linejoin="round" stroke-width="2" d="m2 12 9.642 4.82c.131.066.197.1.266.112.06.011.123.011.184 0 .069-.013.135-.046.266-.111L22 12M2 17l9.642 4.82c.131.066.197.1.266.112.06.011.123.011.184 0 .069-.013.135-.046.266-.111L22 17M2 7l9.642-4.822c.131-.065.197-.098.266-.11a.5.5 0 0 1 .184 0c.069.012.135.045.266.11L22 7l-9.642 4.82a1.087 1.087 0 0 1-.266.112.501.501 0 0 1-.184 0c-.069-.013-.135-.046-.266-.111L2 7Z"/></svg>