<svg xmlns="http://www.w3.org/2000/svg" width="24" height="24" fill="none"><path stroke="#667085" stroke-linecap="round" stroke-linejoin="round" stroke-width="2" d="m4 14.0004 1.57465 6.2986c.04428.1771.06642.2657.09262.343.2559.7555.93625 1.2867 1.73125 1.3517.08138.0067.17268.0067.35527.0067.22865 0 .34298 0 .43929-.0093.95192-.0924 1.70526-.8457 1.79758-1.7976C10 20.0972 10 19.9828 10 19.7542V5.5004m8.5 8c1.933 0 3.5-1.567 3.5-3.5s-1.567-3.5-3.5-3.5m-8.25-1H6.5c-2.48528 0-4.5 2.01472-4.5 4.5 0 2.4853 2.01472 4.5 4.5 4.5h3.75c1.7664 0 3.9272.9469 5.5943 1.8556.9725.5302 1.4588.7953 1.7773.7563.2953-.0362.5186-.1688.6917-.4108.1867-.261.1867-.7831.1867-1.8274V5.12668c0-1.04428 0-1.56643-.1867-1.82739-.1731-.24199-.3964-.37459-.6917-.41076-.3185-.03901-.8048.22607-1.7773.75622-1.6671.90876-3.8279 1.85565-5.5943 1.85565Z"/></svg>