<svg width="352" height="126" viewBox="0 0 352 126" fill="none" xmlns="http://www.w3.org/2000/svg">
<rect x="0.5" y="0.5" width="351" height="125" rx="11.5" fill="white"/>
<rect x="0.5" y="0.5" width="351" height="125" rx="11.5" stroke="#EAECF0"/>
<g filter="url(#filter0_d_29_7947)">
<rect x="156" y="16" width="40" height="40" rx="8" fill="white" shape-rendering="crispEdges"/>
<rect x="156.5" y="16.5" width="39" height="39" rx="7.5" stroke="#EAECF0" shape-rendering="crispEdges"/>
<path d="M172.667 39.3333L176 36M176 36L179.333 39.3333M176 36V43.5M182.667 39.9524C183.685 39.1117 184.333 37.8399 184.333 36.4167C184.333 33.8854 182.281 31.8333 179.75 31.8333C179.568 31.8333 179.398 31.7383 179.305 31.5814C178.218 29.7374 176.212 28.5 173.917 28.5C170.465 28.5 167.667 31.2982 167.667 34.75C167.667 36.4718 168.363 38.0309 169.489 39.1613" stroke="#475467" stroke-width="1.66667" stroke-linecap="round" stroke-linejoin="round"/>
</g>
<g clip-path="url(#clip0_29_7947)">
<path d="M129.504 83V72.8182H133.322C134.105 72.8182 134.761 72.9541 135.291 73.2259C135.825 73.4976 136.228 73.8788 136.499 74.3693C136.774 74.8565 136.912 75.425 136.912 76.0746C136.912 76.7275 136.773 77.2943 136.494 77.7749C136.219 78.2521 135.813 78.6217 135.276 78.8835C134.739 79.142 134.08 79.2713 133.298 79.2713H130.578V77.7401H133.049C133.506 77.7401 133.881 77.6771 134.173 77.5511C134.464 77.4219 134.68 77.2346 134.819 76.9893C134.961 76.7408 135.033 76.4358 135.033 76.0746C135.033 75.7133 134.961 75.4051 134.819 75.1499C134.676 74.8913 134.459 74.6958 134.168 74.5632C133.876 74.4273 133.5 74.3594 133.039 74.3594H131.349V83H129.504ZM134.764 78.3864L137.285 83H135.227L132.751 78.3864H134.764ZM140.728 83.1541C140.244 83.1541 139.808 83.0679 139.42 82.8956C139.036 82.7199 138.731 82.4614 138.505 82.12C138.283 81.7786 138.172 81.3577 138.172 80.8572C138.172 80.4264 138.252 80.0701 138.411 79.7884C138.57 79.5066 138.787 79.2812 139.062 79.1122C139.337 78.9432 139.647 78.8156 139.992 78.7294C140.34 78.6399 140.699 78.5753 141.071 78.5355C141.518 78.4891 141.881 78.4477 142.159 78.4112C142.438 78.3714 142.64 78.3118 142.766 78.2322C142.895 78.1494 142.96 78.0218 142.96 77.8494V77.8196C142.96 77.4451 142.849 77.1551 142.627 76.9496C142.405 76.7441 142.085 76.6413 141.667 76.6413C141.226 76.6413 140.877 76.7375 140.618 76.9297C140.363 77.1219 140.191 77.349 140.101 77.6108L138.421 77.3722C138.553 76.9081 138.772 76.5204 139.077 76.2088C139.382 75.8939 139.755 75.6586 140.196 75.5028C140.636 75.3438 141.124 75.2642 141.657 75.2642C142.025 75.2642 142.391 75.3073 142.756 75.3935C143.121 75.4796 143.454 75.6222 143.755 75.821C144.057 76.0166 144.299 76.2834 144.481 76.6214C144.667 76.9595 144.76 77.3821 144.76 77.8892V83H143.029V81.951H142.97C142.86 82.1631 142.706 82.362 142.507 82.5476C142.312 82.7299 142.065 82.8774 141.767 82.9901C141.472 83.0994 141.125 83.1541 140.728 83.1541ZM141.195 81.8317C141.556 81.8317 141.869 81.7604 142.135 81.6179C142.4 81.4721 142.604 81.2798 142.746 81.0412C142.892 80.8026 142.965 80.5424 142.965 80.2607V79.3608C142.908 79.4072 142.812 79.4503 142.676 79.4901C142.544 79.5298 142.395 79.5646 142.229 79.5945C142.063 79.6243 141.899 79.6508 141.737 79.674C141.574 79.6972 141.434 79.7171 141.314 79.7337C141.046 79.7701 140.806 79.8298 140.593 79.9126C140.381 79.9955 140.214 80.1115 140.091 80.2607C139.969 80.4065 139.907 80.5954 139.907 80.8274C139.907 81.1589 140.028 81.4091 140.27 81.5781C140.512 81.7472 140.82 81.8317 141.195 81.8317ZM152.605 77.3821L150.964 77.5611C150.918 77.3954 150.837 77.2396 150.721 77.0938C150.608 76.9479 150.455 76.8303 150.263 76.7408C150.071 76.6513 149.836 76.6065 149.557 76.6065C149.183 76.6065 148.868 76.6877 148.613 76.8501C148.361 77.0125 148.236 77.223 148.24 77.4815C148.236 77.7036 148.318 77.8842 148.483 78.0234C148.652 78.1626 148.931 78.277 149.319 78.3665L150.621 78.6449C151.344 78.8007 151.881 79.0476 152.232 79.3857C152.587 79.7237 152.766 80.1662 152.769 80.7131C152.766 81.1937 152.625 81.6179 152.346 81.9858C152.071 82.3504 151.688 82.6354 151.198 82.8409C150.707 83.0464 150.144 83.1491 149.507 83.1491C148.573 83.1491 147.82 82.9536 147.25 82.5625C146.68 82.1681 146.341 81.6196 146.231 80.9169L147.986 80.7479C148.066 81.0926 148.235 81.3527 148.493 81.5284C148.752 81.7041 149.088 81.7919 149.502 81.7919C149.93 81.7919 150.273 81.7041 150.532 81.5284C150.793 81.3527 150.924 81.1357 150.924 80.8771C150.924 80.6584 150.84 80.4777 150.671 80.3352C150.505 80.1927 150.247 80.0833 149.895 80.0071L148.593 79.7337C147.86 79.5812 147.318 79.3243 146.967 78.9631C146.616 78.5985 146.442 78.1378 146.445 77.581C146.442 77.1103 146.569 76.7027 146.828 76.358C147.09 76.0099 147.453 75.7415 147.917 75.5526C148.384 75.3603 148.922 75.2642 149.532 75.2642C150.427 75.2642 151.132 75.4548 151.645 75.8359C152.162 76.2171 152.482 76.7325 152.605 77.3821ZM154.253 83V75.3636H155.973V76.6612H156.062C156.222 76.2237 156.485 75.8823 156.853 75.6371C157.221 75.3885 157.66 75.2642 158.17 75.2642C158.688 75.2642 159.123 75.3902 159.478 75.642C159.836 75.8906 160.088 76.2304 160.234 76.6612H160.313C160.482 76.237 160.767 75.8989 161.168 75.647C161.573 75.3918 162.052 75.2642 162.605 75.2642C163.308 75.2642 163.881 75.4863 164.325 75.9304C164.769 76.3745 164.991 77.0225 164.991 77.8743V83H163.187V78.1527C163.187 77.6787 163.061 77.3324 162.809 77.1136C162.557 76.8916 162.249 76.7805 161.884 76.7805C161.45 76.7805 161.11 76.9164 160.865 77.1882C160.623 77.4567 160.502 77.8063 160.502 78.2372V83H158.737V78.0781C158.737 77.6837 158.618 77.3688 158.379 77.1335C158.144 76.8982 157.836 76.7805 157.455 76.7805C157.196 76.7805 156.961 76.8468 156.749 76.9794C156.536 77.1087 156.367 77.2926 156.241 77.5312C156.116 77.7666 156.053 78.0417 156.053 78.3565V83H154.253ZM171.409 85.8636C171.163 85.8636 170.936 85.8438 170.727 85.804C170.522 85.7675 170.358 85.7244 170.235 85.6747L170.653 84.2727C170.915 84.349 171.148 84.3854 171.354 84.3821C171.559 84.3788 171.74 84.3142 171.896 84.1882C172.055 84.0656 172.189 83.8601 172.298 83.5717L172.453 83.1591L169.683 75.3636H171.593L173.352 81.1307H173.432L175.197 75.3636H177.111L174.053 83.9247C173.911 84.3291 173.722 84.6754 173.487 84.9638C173.251 85.2554 172.963 85.4775 172.622 85.63C172.284 85.7857 171.879 85.8636 171.409 85.8636ZM183.224 79.7884V75.3636H185.023V83H183.278V81.6428H183.199C183.026 82.0703 182.743 82.42 182.349 82.6918C181.957 82.9635 181.475 83.0994 180.902 83.0994C180.401 83.0994 179.959 82.9884 179.574 82.7663C179.193 82.541 178.895 82.2145 178.68 81.7869C178.464 81.3561 178.356 80.8357 178.356 80.2259V75.3636H180.156V79.9474C180.156 80.4313 180.289 80.8158 180.554 81.1009C180.819 81.3859 181.167 81.5284 181.598 81.5284C181.863 81.5284 182.12 81.4638 182.368 81.3345C182.617 81.2053 182.821 81.013 182.98 80.7578C183.142 80.4993 183.224 80.1761 183.224 79.7884ZM188.515 80.6037L188.51 78.4311H188.798L191.542 75.3636H193.645L190.27 79.1222H189.897L188.515 80.6037ZM186.874 83V72.8182H188.674V83H186.874ZM191.667 83L189.181 79.5249L190.394 78.2571L193.819 83H191.667ZM196.644 72.8182V83H194.845V72.8182H196.644ZM200.692 83.1541C200.209 83.1541 199.773 83.0679 199.385 82.8956C199 82.7199 198.696 82.4614 198.47 82.12C198.248 81.7786 198.137 81.3577 198.137 80.8572C198.137 80.4264 198.217 80.0701 198.376 79.7884C198.535 79.5066 198.752 79.2812 199.027 79.1122C199.302 78.9432 199.612 78.8156 199.957 78.7294C200.305 78.6399 200.664 78.5753 201.036 78.5355C201.483 78.4891 201.846 78.4477 202.124 78.4112C202.403 78.3714 202.605 78.3118 202.731 78.2322C202.86 78.1494 202.925 78.0218 202.925 77.8494V77.8196C202.925 77.4451 202.814 77.1551 202.592 76.9496C202.37 76.7441 202.05 76.6413 201.632 76.6413C201.191 76.6413 200.842 76.7375 200.583 76.9297C200.328 77.1219 200.156 77.349 200.066 77.6108L198.386 77.3722C198.518 76.9081 198.737 76.5204 199.042 76.2088C199.347 75.8939 199.72 75.6586 200.161 75.5028C200.601 75.3438 201.089 75.2642 201.622 75.2642C201.99 75.2642 202.356 75.3073 202.721 75.3935C203.085 75.4796 203.419 75.6222 203.72 75.821C204.022 76.0166 204.264 76.2834 204.446 76.6214C204.632 76.9595 204.724 77.3821 204.724 77.8892V83H202.994V81.951H202.935C202.825 82.1631 202.671 82.362 202.472 82.5476C202.277 82.7299 202.03 82.8774 201.732 82.9901C201.437 83.0994 201.09 83.1541 200.692 83.1541ZM201.16 81.8317C201.521 81.8317 201.834 81.7604 202.099 81.6179C202.365 81.4721 202.568 81.2798 202.711 81.0412C202.857 80.8026 202.93 80.5424 202.93 80.2607V79.3608C202.873 79.4072 202.777 79.4503 202.641 79.4901C202.509 79.5298 202.36 79.5646 202.194 79.5945C202.028 79.6243 201.864 79.6508 201.702 79.674C201.539 79.6972 201.398 79.7171 201.279 79.7337C201.011 79.7701 200.77 79.8298 200.558 79.9126C200.346 79.9955 200.179 80.1115 200.056 80.2607C199.933 80.4065 199.872 80.5954 199.872 80.8274C199.872 81.1589 199.993 81.4091 200.235 81.5781C200.477 81.7472 200.785 81.8317 201.16 81.8317ZM208.334 78.5256V83H206.534V75.3636H208.254V76.6612H208.344C208.519 76.2337 208.799 75.8939 209.184 75.642C209.572 75.3902 210.051 75.2642 210.621 75.2642C211.148 75.2642 211.607 75.3769 211.998 75.6023C212.392 75.8277 212.697 76.1541 212.913 76.5817C213.131 77.0092 213.239 77.5279 213.236 78.1378V83H211.436V78.4162C211.436 77.9058 211.304 77.5064 211.038 77.218C210.777 76.9297 210.414 76.7855 209.95 76.7855C209.635 76.7855 209.355 76.8551 209.109 76.9943C208.867 77.1302 208.677 77.3274 208.538 77.5859C208.402 77.8445 208.334 78.1577 208.334 78.5256ZM218.386 86.0227C217.74 86.0227 217.185 85.9349 216.721 85.7592C216.257 85.5869 215.884 85.3549 215.602 85.0632C215.321 84.7715 215.125 84.4484 215.016 84.0938L216.636 83.701C216.709 83.8501 216.815 83.9976 216.955 84.1435C217.094 84.2926 217.281 84.4152 217.516 84.5114C217.755 84.6108 218.055 84.6605 218.416 84.6605C218.927 84.6605 219.349 84.5362 219.684 84.2876C220.019 84.0424 220.186 83.638 220.186 83.0746V81.6278H220.097C220.004 81.8134 219.868 82.004 219.689 82.1996C219.513 82.3951 219.28 82.5592 218.988 82.6918C218.7 82.8243 218.337 82.8906 217.899 82.8906C217.312 82.8906 216.781 82.7531 216.303 82.478C215.829 82.1996 215.451 81.7853 215.17 81.2351C214.891 80.6816 214.752 79.9889 214.752 79.157C214.752 78.3184 214.891 77.6108 215.17 77.0341C215.451 76.4541 215.831 76.0149 216.308 75.7166C216.786 75.415 217.317 75.2642 217.904 75.2642C218.352 75.2642 218.719 75.3404 219.008 75.4929C219.299 75.642 219.531 75.8227 219.704 76.0348C219.876 76.2436 220.007 76.4408 220.097 76.6264H220.196V75.3636H221.971V83.1243C221.971 83.7772 221.815 84.3175 221.504 84.745C221.192 85.1726 220.766 85.4924 220.226 85.7045C219.686 85.9167 219.072 86.0227 218.386 86.0227ZM218.401 81.4787C218.782 81.4787 219.107 81.3859 219.376 81.2003C219.644 81.0147 219.848 80.7479 219.987 80.3999C220.126 80.0518 220.196 79.6342 220.196 79.147C220.196 78.6664 220.126 78.2455 219.987 77.8842C219.851 77.523 219.649 77.2429 219.381 77.044C219.116 76.8419 218.789 76.7408 218.401 76.7408C218 76.7408 217.665 76.8452 217.397 77.054C217.129 77.2628 216.926 77.5495 216.79 77.9141C216.655 78.2753 216.587 78.6863 216.587 79.147C216.587 79.6143 216.655 80.0237 216.79 80.375C216.93 80.723 217.134 80.9948 217.402 81.1903C217.674 81.3826 218.007 81.4787 218.401 81.4787Z" fill="#1570EF"/>
</g>
<path d="M94.2053 105V96.2727H97.1541C97.8388 96.2727 98.3984 96.3963 98.8331 96.6435C99.2706 96.8878 99.5945 97.2188 99.8047 97.6364C100.015 98.054 100.12 98.5199 100.12 99.0341C100.12 99.5483 100.015 100.016 99.8047 100.436C99.5973 100.857 99.2763 101.192 98.8416 101.442C98.407 101.689 97.8501 101.812 97.1712 101.812H95.0575V100.875H97.1371C97.6058 100.875 97.9822 100.794 98.2663 100.632C98.5504 100.47 98.7564 100.251 98.8842 99.9759C99.0149 99.6974 99.0803 99.3835 99.0803 99.0341C99.0803 98.6847 99.0149 98.3722 98.8842 98.0966C98.7564 97.821 98.549 97.6051 98.2621 97.4489C97.9751 97.2898 97.5945 97.2102 97.12 97.2102H95.2621V105H94.2053ZM108.743 96.2727V105H107.72L102.964 98.1477H102.879V105H101.822V96.2727H102.845L107.618 103.142H107.703V96.2727H108.743ZM116.824 99C116.73 98.7131 116.606 98.456 116.453 98.2287C116.302 97.9986 116.122 97.8026 115.912 97.6406C115.704 97.4787 115.468 97.3551 115.204 97.2699C114.94 97.1847 114.65 97.142 114.335 97.142C113.818 97.142 113.348 97.2756 112.924 97.5426C112.501 97.8097 112.164 98.2031 111.914 98.723C111.664 99.2429 111.539 99.8807 111.539 100.636C111.539 101.392 111.666 102.03 111.919 102.55C112.172 103.07 112.514 103.463 112.946 103.73C113.377 103.997 113.863 104.131 114.403 104.131C114.903 104.131 115.343 104.024 115.724 103.811C116.108 103.595 116.406 103.291 116.619 102.899C116.835 102.504 116.943 102.04 116.943 101.506L117.267 101.574H114.642V100.636H117.966V101.574C117.966 102.293 117.812 102.918 117.505 103.449C117.201 103.98 116.781 104.392 116.244 104.685C115.71 104.974 115.096 105.119 114.403 105.119C113.63 105.119 112.951 104.938 112.366 104.574C111.784 104.21 111.329 103.693 111.002 103.023C110.679 102.352 110.517 101.557 110.517 100.636C110.517 99.946 110.609 99.3253 110.794 98.7741C110.981 98.2202 111.245 97.7486 111.586 97.3594C111.927 96.9702 112.331 96.6719 112.797 96.4645C113.262 96.2571 113.775 96.1534 114.335 96.1534C114.795 96.1534 115.224 96.223 115.622 96.3622C116.022 96.4986 116.379 96.6932 116.691 96.946C117.007 97.196 117.27 97.4957 117.48 97.8452C117.69 98.1918 117.835 98.5767 117.914 99H116.824ZM121.139 103.807L121.071 104.267C121.023 104.591 120.949 104.938 120.849 105.307C120.753 105.676 120.652 106.024 120.547 106.351C120.442 106.678 120.355 106.938 120.287 107.131H119.52C119.557 106.949 119.605 106.709 119.665 106.411C119.724 106.112 119.784 105.778 119.844 105.409C119.906 105.043 119.957 104.668 119.997 104.284L120.048 103.807H121.139ZM129.855 96.2727H130.912V102.511C130.912 103.068 130.809 103.541 130.605 103.93C130.4 104.32 130.112 104.615 129.74 104.817C129.368 105.018 128.929 105.119 128.423 105.119C127.946 105.119 127.521 105.033 127.149 104.859C126.777 104.683 126.484 104.433 126.271 104.109C126.058 103.786 125.951 103.401 125.951 102.955H126.991C126.991 103.202 127.052 103.418 127.174 103.602C127.299 103.784 127.47 103.926 127.686 104.028C127.902 104.131 128.147 104.182 128.423 104.182C128.727 104.182 128.985 104.118 129.199 103.99C129.412 103.862 129.574 103.675 129.684 103.428C129.798 103.178 129.855 102.872 129.855 102.511V96.2727ZM133.029 105V96.2727H135.978C136.663 96.2727 137.223 96.3963 137.657 96.6435C138.095 96.8878 138.419 97.2188 138.629 97.6364C138.839 98.054 138.944 98.5199 138.944 99.0341C138.944 99.5483 138.839 100.016 138.629 100.436C138.422 100.857 138.1 101.192 137.666 101.442C137.231 101.689 136.674 101.812 135.995 101.812H133.882V100.875H135.961C136.43 100.875 136.806 100.794 137.091 100.632C137.375 100.47 137.581 100.251 137.708 99.9759C137.839 99.6974 137.904 99.3835 137.904 99.0341C137.904 98.6847 137.839 98.3722 137.708 98.0966C137.581 97.821 137.373 97.6051 137.086 97.4489C136.799 97.2898 136.419 97.2102 135.944 97.2102H134.086V105H133.029ZM146.613 99C146.519 98.7131 146.395 98.456 146.242 98.2287C146.091 97.9986 145.911 97.8026 145.701 97.6406C145.493 97.4787 145.257 97.3551 144.993 97.2699C144.729 97.1847 144.439 97.142 144.124 97.142C143.607 97.142 143.137 97.2756 142.713 97.5426C142.29 97.8097 141.953 98.2031 141.703 98.723C141.453 99.2429 141.328 99.8807 141.328 100.636C141.328 101.392 141.455 102.03 141.708 102.55C141.961 103.07 142.303 103.463 142.735 103.73C143.167 103.997 143.652 104.131 144.192 104.131C144.692 104.131 145.132 104.024 145.513 103.811C145.897 103.595 146.195 103.291 146.408 102.899C146.624 102.504 146.732 102.04 146.732 101.506L147.056 101.574H144.431V100.636H147.755V101.574C147.755 102.293 147.601 102.918 147.294 103.449C146.99 103.98 146.57 104.392 146.033 104.685C145.499 104.974 144.885 105.119 144.192 105.119C143.419 105.119 142.74 104.938 142.155 104.574C141.573 104.21 141.118 103.693 140.792 103.023C140.468 102.352 140.306 101.557 140.306 100.636C140.306 99.946 140.398 99.3253 140.583 98.7741C140.77 98.2202 141.034 97.7486 141.375 97.3594C141.716 96.9702 142.12 96.6719 142.586 96.4645C143.051 96.2571 143.564 96.1534 144.124 96.1534C144.584 96.1534 145.013 96.223 145.411 96.3622C145.811 96.4986 146.168 96.6932 146.48 96.946C146.796 97.196 147.059 97.4957 147.269 97.8452C147.479 98.1918 147.624 98.5767 147.703 99H146.613ZM156.536 101.318C156.536 100.244 156.675 99.2571 156.954 98.3565C157.235 97.4531 157.636 96.6222 158.156 95.8636H159.042C158.837 96.1449 158.646 96.4915 158.467 96.9034C158.29 97.3125 158.136 97.7628 158.002 98.2543C157.869 98.7429 157.763 99.2486 157.687 99.7713C157.613 100.294 157.576 100.81 157.576 101.318C157.576 101.994 157.641 102.68 157.772 103.376C157.903 104.072 158.079 104.719 158.3 105.315C158.522 105.912 158.769 106.398 159.042 106.773H158.156C157.636 106.014 157.235 105.185 156.954 104.284C156.675 103.381 156.536 102.392 156.536 101.318ZM160.526 105V98.4545H161.498V99.4773H161.583C161.719 99.1278 161.939 98.8565 162.243 98.6634C162.547 98.4673 162.912 98.3693 163.338 98.3693C163.77 98.3693 164.13 98.4673 164.417 98.6634C164.706 98.8565 164.932 99.1278 165.094 99.4773H165.162C165.33 99.1392 165.581 98.8707 165.917 98.6719C166.252 98.4702 166.654 98.3693 167.123 98.3693C167.708 98.3693 168.186 98.5526 168.559 98.919C168.931 99.2827 169.117 99.8494 169.117 100.619V105H168.111V100.619C168.111 100.136 167.979 99.7912 167.715 99.5838C167.451 99.3764 167.14 99.2727 166.782 99.2727C166.321 99.2727 165.965 99.4119 165.712 99.6903C165.459 99.9659 165.333 100.315 165.333 100.739V105H164.31V100.517C164.31 100.145 164.189 99.8452 163.948 99.6179C163.706 99.3878 163.395 99.2727 163.015 99.2727C162.753 99.2727 162.509 99.3423 162.282 99.4815C162.057 99.6207 161.875 99.8139 161.736 100.061C161.6 100.305 161.532 100.588 161.532 100.909V105H160.526ZM172.882 105.153C172.467 105.153 172.091 105.075 171.752 104.919C171.414 104.76 171.146 104.531 170.947 104.233C170.748 103.932 170.649 103.568 170.649 103.142C170.649 102.767 170.723 102.463 170.87 102.23C171.018 101.994 171.216 101.81 171.463 101.676C171.71 101.543 171.983 101.443 172.281 101.378C172.582 101.31 172.885 101.256 173.189 101.216C173.586 101.165 173.909 101.126 174.156 101.101C174.406 101.072 174.588 101.026 174.701 100.96C174.818 100.895 174.876 100.781 174.876 100.619V100.585C174.876 100.165 174.761 99.8381 174.531 99.6051C174.304 99.3722 173.958 99.2557 173.495 99.2557C173.015 99.2557 172.639 99.3608 172.366 99.571C172.093 99.7812 171.902 100.006 171.791 100.244L170.836 99.9034C171.007 99.5057 171.234 99.196 171.518 98.9744C171.805 98.75 172.118 98.5937 172.456 98.5057C172.797 98.4148 173.132 98.3693 173.461 98.3693C173.672 98.3693 173.913 98.3949 174.186 98.446C174.461 98.4943 174.727 98.5952 174.983 98.7486C175.241 98.902 175.456 99.1335 175.626 99.4432C175.797 99.7528 175.882 100.168 175.882 100.688V105H174.876V104.114H174.825C174.757 104.256 174.643 104.408 174.484 104.57C174.325 104.732 174.113 104.869 173.849 104.983C173.585 105.097 173.262 105.153 172.882 105.153ZM173.035 104.25C173.433 104.25 173.768 104.172 174.041 104.016C174.316 103.859 174.524 103.658 174.663 103.411C174.805 103.163 174.876 102.903 174.876 102.631V101.71C174.833 101.761 174.74 101.808 174.595 101.851C174.453 101.891 174.288 101.926 174.1 101.957C173.916 101.986 173.735 102.011 173.559 102.034C173.386 102.054 173.245 102.071 173.137 102.085C172.876 102.119 172.632 102.175 172.404 102.251C172.18 102.325 171.998 102.437 171.859 102.588C171.723 102.736 171.654 102.937 171.654 103.193C171.654 103.543 171.784 103.807 172.042 103.986C172.304 104.162 172.635 104.25 173.035 104.25ZM178.467 98.4545L180.036 101.131L181.604 98.4545H182.763L180.649 101.727L182.763 105H181.604L180.036 102.46L178.467 105H177.308L179.388 101.727L177.308 98.4545H178.467ZM184.931 105.068C184.721 105.068 184.54 104.993 184.39 104.842C184.239 104.692 184.164 104.511 184.164 104.301C184.164 104.091 184.239 103.911 184.39 103.76C184.54 103.609 184.721 103.534 184.931 103.534C185.141 103.534 185.321 103.609 185.472 103.76C185.623 103.911 185.698 104.091 185.698 104.301C185.698 104.44 185.662 104.568 185.591 104.685C185.523 104.801 185.431 104.895 185.314 104.966C185.201 105.034 185.073 105.068 184.931 105.068ZM193.809 105.119C193.247 105.119 192.745 105.023 192.305 104.83C191.868 104.636 191.52 104.368 191.261 104.024C191.005 103.678 190.866 103.276 190.843 102.818H191.917C191.94 103.099 192.037 103.342 192.207 103.547C192.377 103.749 192.6 103.905 192.876 104.016C193.152 104.126 193.457 104.182 193.792 104.182C194.167 104.182 194.5 104.116 194.789 103.986C195.079 103.855 195.306 103.673 195.471 103.44C195.636 103.207 195.718 102.938 195.718 102.631C195.718 102.31 195.639 102.027 195.48 101.783C195.321 101.536 195.088 101.342 194.781 101.203C194.474 101.064 194.099 100.994 193.656 100.994H192.957V100.057H193.656C194.002 100.057 194.306 99.9943 194.568 99.8693C194.832 99.7443 195.038 99.5682 195.186 99.3409C195.336 99.1136 195.412 98.8466 195.412 98.5398C195.412 98.2443 195.346 97.9872 195.216 97.7685C195.085 97.5497 194.9 97.3793 194.662 97.2571C194.426 97.1349 194.147 97.0739 193.826 97.0739C193.525 97.0739 193.241 97.1293 192.974 97.2401C192.71 97.348 192.494 97.5057 192.326 97.7131C192.159 97.9176 192.068 98.1648 192.054 98.4545H191.031C191.048 97.9972 191.186 97.5966 191.444 97.2528C191.703 96.9062 192.041 96.6364 192.458 96.4432C192.879 96.25 193.341 96.1534 193.843 96.1534C194.383 96.1534 194.846 96.2628 195.233 96.4815C195.619 96.6974 195.916 96.983 196.123 97.3381C196.331 97.6932 196.434 98.0767 196.434 98.4886C196.434 98.9801 196.305 99.3991 196.047 99.7457C195.791 100.092 195.443 100.332 195.002 100.466V100.534C195.554 100.625 195.984 100.859 196.294 101.237C196.603 101.612 196.758 102.077 196.758 102.631C196.758 103.105 196.629 103.531 196.37 103.909C196.115 104.284 195.765 104.58 195.322 104.795C194.879 105.011 194.375 105.119 193.809 105.119ZM198.297 103.21V102.341L202.132 96.2727H202.762V97.6193H202.336L199.439 102.205V102.273H204.603V103.21H198.297ZM202.404 105V102.946V102.541V96.2727H203.41V105H202.404ZM208.928 105.119C208.428 105.119 207.977 105.02 207.577 104.821C207.176 104.622 206.855 104.349 206.614 104.003C206.372 103.656 206.24 103.261 206.217 102.818H207.24C207.28 103.213 207.459 103.54 207.777 103.798C208.098 104.054 208.482 104.182 208.928 104.182C209.286 104.182 209.604 104.098 209.882 103.93C210.163 103.763 210.384 103.533 210.543 103.24C210.705 102.945 210.786 102.611 210.786 102.239C210.786 101.858 210.702 101.518 210.534 101.22C210.369 100.919 210.142 100.682 209.852 100.509C209.563 100.335 209.232 100.247 208.859 100.244C208.592 100.241 208.318 100.283 208.037 100.368C207.756 100.45 207.524 100.557 207.342 100.688L206.354 100.568L206.882 96.2727H211.416V97.2102H207.768L207.462 99.7841H207.513C207.692 99.642 207.916 99.5241 208.186 99.4304C208.456 99.3366 208.737 99.2898 209.03 99.2898C209.564 99.2898 210.04 99.4176 210.457 99.6733C210.878 99.9261 211.207 100.273 211.446 100.713C211.688 101.153 211.808 101.656 211.808 102.222C211.808 102.778 211.683 103.276 211.433 103.713C211.186 104.148 210.845 104.491 210.411 104.744C209.976 104.994 209.482 105.119 208.928 105.119ZM218.632 103.432L213.825 98.625L214.473 97.9773L219.279 102.784L218.632 103.432ZM214.473 103.432L213.825 102.784L218.632 97.9773L219.279 98.625L214.473 103.432ZM224.479 96.2727V105H223.423V97.3807H223.371L221.241 98.7955V97.7216L223.423 96.2727H224.479ZM229.785 105.119C229.2 105.119 228.683 105.016 228.234 104.808C227.788 104.598 227.44 104.31 227.19 103.943C226.94 103.574 226.816 103.153 226.819 102.682C226.816 102.312 226.888 101.972 227.036 101.659C227.184 101.344 227.386 101.081 227.641 100.871C227.9 100.658 228.188 100.523 228.506 100.466V100.415C228.089 100.307 227.756 100.072 227.509 99.7116C227.262 99.348 227.14 98.9347 227.143 98.4716C227.14 98.0284 227.252 97.6321 227.479 97.2827C227.707 96.9332 228.019 96.6577 228.417 96.456C228.817 96.2543 229.273 96.1534 229.785 96.1534C230.29 96.1534 230.742 96.2543 231.14 96.456C231.538 96.6577 231.85 96.9332 232.077 97.2827C232.308 97.6321 232.424 98.0284 232.427 98.4716C232.424 98.9347 232.298 99.348 232.048 99.7116C231.8 100.072 231.472 100.307 231.063 100.415V100.466C231.379 100.523 231.663 100.658 231.915 100.871C232.168 101.081 232.37 101.344 232.521 101.659C232.671 101.972 232.748 102.312 232.751 102.682C232.748 103.153 232.62 103.574 232.367 103.943C232.117 104.31 231.769 104.598 231.323 104.808C230.88 105.016 230.367 105.119 229.785 105.119ZM229.785 104.182C230.18 104.182 230.521 104.118 230.808 103.99C231.094 103.862 231.316 103.682 231.472 103.449C231.629 103.216 231.708 102.943 231.711 102.631C231.708 102.301 231.623 102.01 231.455 101.757C231.288 101.504 231.059 101.305 230.769 101.161C230.482 101.016 230.154 100.943 229.785 100.943C229.413 100.943 229.08 101.016 228.788 101.161C228.498 101.305 228.269 101.504 228.102 101.757C227.937 102.01 227.856 102.301 227.859 102.631C227.856 102.943 227.931 103.216 228.085 103.449C228.241 103.682 228.464 103.862 228.754 103.99C229.043 104.118 229.387 104.182 229.785 104.182ZM229.785 100.04C230.097 100.04 230.374 99.9773 230.616 99.8523C230.86 99.7273 231.052 99.5526 231.191 99.3281C231.33 99.1037 231.401 98.8409 231.404 98.5398C231.401 98.2443 231.332 97.9872 231.195 97.7685C231.059 97.5469 230.87 97.3764 230.629 97.2571C230.387 97.1349 230.106 97.0739 229.785 97.0739C229.458 97.0739 229.173 97.1349 228.928 97.2571C228.684 97.3764 228.495 97.5469 228.362 97.7685C228.228 97.9872 228.163 98.2443 228.165 98.5398C228.163 98.8409 228.229 99.1037 228.366 99.3281C228.505 99.5526 228.697 99.7273 228.941 99.8523C229.185 99.9773 229.467 100.04 229.785 100.04ZM237.23 105.119C236.588 105.119 236.042 104.945 235.59 104.595C235.138 104.243 234.793 103.733 234.554 103.065C234.316 102.395 234.196 101.585 234.196 100.636C234.196 99.6932 234.316 98.8878 234.554 98.2202C234.796 97.5497 235.142 97.0384 235.594 96.6861C236.049 96.331 236.594 96.1534 237.23 96.1534C237.867 96.1534 238.411 96.331 238.863 96.6861C239.317 97.0384 239.664 97.5497 239.902 98.2202C240.144 98.8878 240.265 99.6932 240.265 100.636C240.265 101.585 240.145 102.395 239.907 103.065C239.668 103.733 239.323 104.243 238.871 104.595C238.419 104.945 237.873 105.119 237.23 105.119ZM237.23 104.182C237.867 104.182 238.361 103.875 238.713 103.261C239.066 102.648 239.242 101.773 239.242 100.636C239.242 99.8807 239.161 99.2372 238.999 98.706C238.84 98.1747 238.61 97.7699 238.309 97.4915C238.01 97.2131 237.651 97.0739 237.23 97.0739C236.6 97.0739 236.107 97.3849 235.752 98.0071C235.397 98.6264 235.219 99.5028 235.219 100.636C235.219 101.392 235.299 102.034 235.458 102.562C235.617 103.091 235.846 103.493 236.144 103.768C236.445 104.044 236.807 104.182 237.23 104.182ZM241.901 107.455V98.4545H242.873V99.4943H242.992C243.066 99.3807 243.168 99.2358 243.299 99.0597C243.432 98.8807 243.623 98.7216 243.87 98.5824C244.12 98.4403 244.458 98.3693 244.884 98.3693C245.435 98.3693 245.921 98.5071 246.341 98.7827C246.762 99.0582 247.09 99.4489 247.326 99.9545C247.561 100.46 247.679 101.057 247.679 101.744C247.679 102.438 247.561 103.038 247.326 103.547C247.09 104.053 246.763 104.445 246.346 104.723C245.928 104.999 245.446 105.136 244.901 105.136C244.48 105.136 244.144 105.067 243.891 104.928C243.638 104.786 243.444 104.625 243.307 104.446C243.171 104.264 243.066 104.114 242.992 103.994H242.907V107.455H241.901ZM242.89 101.727C242.89 102.222 242.962 102.658 243.107 103.036C243.252 103.411 243.463 103.705 243.742 103.918C244.02 104.128 244.361 104.233 244.765 104.233C245.185 104.233 245.536 104.122 245.817 103.901C246.101 103.676 246.314 103.375 246.456 102.997C246.601 102.616 246.674 102.193 246.674 101.727C246.674 101.267 246.603 100.852 246.461 100.483C246.321 100.111 246.11 99.8168 245.826 99.6009C245.544 99.3821 245.191 99.2727 244.765 99.2727C244.355 99.2727 244.012 99.3764 243.733 99.5838C243.455 99.7884 243.245 100.075 243.103 100.445C242.961 100.811 242.89 101.239 242.89 101.727ZM249.694 98.4545L251.262 101.131L252.83 98.4545H253.989L251.876 101.727L253.989 105H252.83L251.262 102.46L249.694 105H248.535L250.614 101.727L248.535 98.4545H249.694ZM257.572 101.318C257.572 102.392 257.431 103.381 257.15 104.284C256.872 105.185 256.473 106.014 255.953 106.773H255.066C255.271 106.491 255.461 106.145 255.637 105.733C255.816 105.324 255.973 104.875 256.106 104.386C256.24 103.895 256.343 103.388 256.417 102.865C256.494 102.339 256.532 101.824 256.532 101.318C256.532 100.642 256.467 99.956 256.336 99.2599C256.206 98.5639 256.029 97.9176 255.808 97.321C255.586 96.7244 255.339 96.2386 255.066 95.8636H255.953C256.473 96.6222 256.872 97.4531 257.15 98.3565C257.431 99.2571 257.572 100.244 257.572 101.318Z" fill="#475467"/>
<defs>
<filter id="filter0_d_29_7947" x="154" y="15" width="44" height="44" filterUnits="userSpaceOnUse" color-interpolation-filters="sRGB">
<feFlood flood-opacity="0" result="BackgroundImageFix"/>
<feColorMatrix in="SourceAlpha" type="matrix" values="0 0 0 0 0 0 0 0 0 0 0 0 0 0 0 0 0 0 127 0" result="hardAlpha"/>
<feOffset dy="1"/>
<feGaussianBlur stdDeviation="1"/>
<feComposite in2="hardAlpha" operator="out"/>
<feColorMatrix type="matrix" values="0 0 0 0 0.0627451 0 0 0 0 0.0941176 0 0 0 0 0.156863 0 0 0 0.05 0"/>
<feBlend mode="normal" in2="BackgroundImageFix" result="effect1_dropShadow_29_7947"/>
<feBlend mode="normal" in="SourceGraphic" in2="effect1_dropShadow_29_7947" result="shape"/>
</filter>
<clipPath id="clip0_29_7947">
<rect width="95" height="20" fill="white" transform="translate(128.5 68)"/>
</clipPath>
</defs>
</svg>
